#!OML:ASF E:\Style4\Style4.ASF
:FULLY-SPECIFIED
:DEGREES
2037
root 0.174322 17.7135 -2.52425 -0.11839 -13.4934 3.22211
lowerback 11.1333 0.559686 2.64601
upperback 5.41366 1.02746 4.14402
thorax -0.621131 0.491238 2.69596
lowerneck 3.58153 -4.5708 -5.63724
upperneck -0.85319 -6.34461 -0.0995096
head -0.681639 -3.15004 0.997167
rclavicle 8.74653e-015 7.95139e-015
rhumerus -371.838 23.4086 -443.343
rradius 51.7253
rwrist -29.5064
rhand -23.5566 28.389
rfingers 7.12502
rthumb 2.90562 -1.57095
lclavicle 8.74653e-015 7.95139e-015
lhumerus 9.86192 -15.5043 56.8183
lradius 119.257
lwrist 45.2527
lhand -21.1139 22.2045
lfingers 7.12502
lthumb 5.26442 52.1191
rfemur -19.2533 7.76645 13.8154
rtibia 34.0913
rfoot -16.1463 -6.063
rtoes -12.0135
lfemur -12.7114 7.68833 -23.4955
ltibia 33.1471
lfoot -22.0508 13.7804
ltoes -10.05
2038
root 0.180243 17.7218 -2.51997 -0.0838527 -13.4407 3.0516
lowerback 11.0788 0.408585 2.53618
upperback 5.42568 0.812105 4.02011
thorax -0.57317 0.383705 2.65341
lowerneck 3.56715 -4.52961 -5.80699
upperneck -1.03405 -6.30101 -0.134744
head -0.733149 -3.12339 1.01748
rclavicle 2.78299e-015 -1.59028e-015
rhumerus -373.771 23.631 -443.819
rradius 53.2803
rwrist -30.2859
rhand -23.6164 28.3987
rfingers 7.12502
rthumb 2.84781 -1.56203
lclavicle 2.78299e-015 -1.59028e-015
lhumerus 10.7643 -15.1178 57.0901
lradius 118.052
lwrist 45.6884
lhand -21.2115 22.7009
lfingers 7.12502
lthumb 5.1701 52.6178
rfemur -19.0999 7.81374 13.9797
rtibia 33.876
rfoot -16.1182 -6.11414
rtoes -11.7691
lfemur -12.5815 7.52284 -23.3428
ltibia 32.9499
lfoot -22.0976 13.7331
ltoes -9.35698
2039
root 0.185895 17.7296 -2.51347 -0.034479 -13.3633 2.9459
lowerback 11.0416 0.263447 2.34984
upperback 5.36046 0.602565 3.88394
thorax -0.616295 0.277981 2.63977
lowerneck 3.61077 -4.46346 -5.95287
upperneck -1.1868 -6.22736 -0.203036
head -0.788436 -3.08154 1.02444
rclavicle -3.85642e-014 -1.74931e-014
rhumerus -375.852 23.9115 -444.31
rradius 54.9226
rwrist -31.0639
rhand -23.8718 28.258
rfingers 7.12502
rthumb 2.60121 -1.70592
lclavicle -3.85642e-014 -1.74931e-014
lhumerus 11.493 -14.7508 57.5869
lradius 116.745
lwrist 46.0227
lhand -21.1966 22.5831
lfingers 7.12502
lthumb 5.18457 52.4997
rfemur -18.9393 7.85892 14.0635
rtibia 33.5853
rfoot -15.9929 -6.25892
rtoes -11.8882
lfemur -12.479 7.36591 -23.2729
ltibia 32.7526
lfoot -22.0914 13.7596
ltoes -9.15627
2040
root 0.191126 17.7406 -2.50538 0.00474933 -13.1877 2.9419
lowerback 10.9746 0.093212 2.03144
upperback 5.29217 0.345985 3.73467
thorax -0.645523 0.147084 2.69235
lowerneck 3.65856 -4.39083 -6.08304
upperneck -1.32884 -6.14526 -0.286234
head -0.842395 -3.03528 1.02389
rclavicle 1.86858e-014 3.18055e-014
rhumerus -377.874 24.1353 -444.79
rradius 56.5589
rwrist -31.8091
rhand -24.1065 28.137
rfingers 7.12502
rthumb 2.37455 -1.82954
lclavicle 1.86858e-014 3.18055e-014
lhumerus 12.08 -14.2275 58.3364
lradius 115.293
lwrist 46.3142
lhand -21.1745 22.5255
lfingers 7.12502
lthumb 5.20585 52.4416
rfemur -18.7294 7.81776 14.0444
rtibia 33.2377
rfoot -15.8563 -6.48451
rtoes -12.1532
lfemur -12.3974 7.06523 -23.3147
ltibia 32.5603
lfoot -22.1086 13.8279
ltoes -9.20523
2041
root 0.193606 17.7523 -2.49776 0.0969501 -13.0066 2.73519
lowerback 10.8641 -0.0687594 1.88509
upperback 5.25376 0.114021 3.626
thorax -0.618432 0.0306875 2.68719
lowerneck 3.62841 -4.33095 -6.11922
upperneck -1.42497 -6.07134 -0.439853
head -0.873131 -2.99377 0.982229
rclavicle 1.35174e-014 3.18055e-015
rhumerus -379.827 24.1967 -445.226
rradius 58.2162
rwrist -32.4783
rhand -24.0701 28.1701
rfingers 7.12502
rthumb 2.4097 -1.79607
lclavicle 1.35174e-014 3.18055e-015
lhumerus 12.6559 -13.8332 58.9659
lradius 113.773
lwrist 46.5443
lhand -21.3084 22.64
lfingers 7.12502
lthumb 5.0766 52.5592
rfemur -18.4961 7.83185 14.2518
rtibia 32.8551
rfoot -15.7118 -6.71758
rtoes -12.0908
lfemur -12.325 6.8208 -23.1219
ltibia 32.3566
lfoot -22.055 13.8806
ltoes -9.30245
2042
root 0.19481 17.7629 -2.49056 0.205932 -12.8173 2.49386
lowerback 10.7451 -0.225864 1.74221
upperback 5.21044 -0.11072 3.5396
thorax -0.591579 -0.0823488 2.7019
lowerneck 3.53768 -4.25935 -6.27748
upperneck -1.4496 -5.97805 -0.473913
head -0.864927 -2.94552 0.994735
rclavicle 1.59028e-015 -4.45278e-014
rhumerus -381.778 24.1857 -445.612
rradius 59.9112
rwrist -33.0836
rhand -23.9798 28.2693
rfingers 7.12502
rthumb 2.49688 -1.69581
lclavicle 1.59028e-015 -4.45278e-014
lhumerus 13.2045 -13.5737 59.5559
lradius 112.191
lwrist 46.6298
lhand -21.4402 22.5794
lfingers 7.12502
lthumb 4.9493 52.5016
rfemur -18.2713 7.81073 14.5018
rtibia 32.4649
rfoot -15.5787 -6.90623
rtoes -12.1715
lfemur -12.2432 6.57949 -22.8815
ltibia 32.1067
lfoot -21.9794 13.8344
ltoes -8.95767
2043
root 0.197648 17.7756 -2.48253 0.2918 -12.6085 2.35381
lowerback 10.6299 -0.375069 1.56163
upperback 5.14645 -0.327804 3.39504
thorax -0.588445 -0.191249 2.67593
lowerneck 3.51088 -4.1944 -6.49775
upperneck -1.50021 -5.89889 -0.406969
head -0.871019 -2.90442 1.05201
rclavicle 3.97569e-016 1.59028e-015
rhumerus -383.774 24.0741 -446.013
rradius 61.7109
rwrist -33.7347
rhand -23.9941 28.2882
rfingers 7.12502
rthumb 2.48309 -1.67705
lclavicle 3.97569e-016 1.59028e-015
lhumerus 13.7151 -13.3623 60.1089
lradius 110.556
lwrist 46.7279
lhand -21.4745 22.5633
lfingers 7.12502
lthumb 4.91621 52.4863
rfemur -18.035 7.70626 14.6382
rtibia 32.0574
rfoot -15.4457 -7.03259
rtoes -12.1508
lfemur -12.15 6.27152 -22.7582
ltibia 31.8403
lfoot -21.9624 13.8227
ltoes -8.32176
2044
root 0.200269 17.7893 -2.47337 0.355796 -12.4318 2.31706
lowerback 10.4963 -0.488033 1.32146
upperback 5.0841 -0.503522 3.1977
thorax -0.574858 -0.27974 2.62346
lowerneck 3.52382 -4.13342 -6.67208
upperneck -1.57803 -5.82724 -0.363662
head -0.894301 -2.86606 1.09618
rclavicle 3.57812e-015 -7.95139e-015
rhumerus -385.788 23.8742 -446.393
rradius 63.5654
rwrist -34.3514
rhand -23.9776 28.4263
rfingers 7.12502
rthumb 2.49896 -1.5388
lclavicle 3.57812e-015 -7.95139e-015
lhumerus 14.2354 -13.1714 60.573
lradius 108.841
lwrist 46.9221
lhand -21.4913 22.5051
lfingers 7.12502
lthumb 4.90002 52.4284
rfemur -17.8149 7.56844 14.6575
rtibia 31.6847
rfoot -15.3669 -7.08405
rtoes -11.9622
lfemur -12.007 6.02965 -22.7469
ltibia 31.5017
lfoot -21.8723 13.8568
ltoes -8.02639
2045
root 0.199305 17.803 -2.46288 0.451803 -12.257 2.1781
lowerback 10.3325 -0.592567 1.17976
upperback 5.0529 -0.660789 2.99939
thorax -0.513759 -0.357715 2.5115
lowerneck 3.40025 -4.07112 -6.67917
upperneck -1.54417 -5.73498 -0.410279
head -0.866669 -2.82046 1.0774
rclavicle 8.34896e-015 1.27222e-014
rhumerus -387.691 23.6314 -446.75
rradius 65.3871
rwrist -34.9006
rhand -24.0156 28.8883
rfingers 7.12502
rthumb 2.46234 -1.07719
lclavicle 8.34896e-015 1.27222e-014
lhumerus 14.7592 -13.0114 61.0486
lradius 107.048
lwrist 46.9986
lhand -21.491 22.4636
lfingers 7.12502
lthumb 4.90028 52.387
rfemur -17.6082 7.52609 14.7974
rtibia 31.3447
rfoot -15.3055 -7.16519
rtoes -11.8261
lfemur -11.8219 5.82311 -22.6043
ltibia 31.1002
lfoot -21.7914 13.8318
ltoes -7.87016
2046
root 0.197403 17.8154 -2.45475 0.498906 -12.0446 2.17722
lowerback 10.2835 -0.680272 0.843365
upperback 4.97699 -0.808031 2.7808
thorax -0.560078 -0.433072 2.48909
lowerneck 3.26873 -4.01842 -6.6459
upperneck -1.43983 -5.65173 -0.482964
head -0.816971 -2.78112 1.04222
rclavicle -2.94201e-014 -7.95139e-015
rhumerus -389.661 23.372 -447.065
rradius 67.3908
rwrist -35.4057
rhand -24.1763 28.8098
rfingers 7.12502
rthumb 2.30713 -1.15743
lclavicle -2.94201e-014 -7.95139e-015
lhumerus 15.0977 -12.9751 61.7733
lradius 105.272
lwrist 46.7903
lhand -21.2239 22.3428
lfingers 7.12502
lthumb 5.15816 52.26
rfemur -17.3914 7.42855 14.8002
rtibia 31.0045
rfoot -15.1718 -7.29749
rtoes -11.7453
lfemur -11.6151 5.59794 -22.603
ltibia 30.7008
lfoot -21.6443 13.8278
ltoes -8.11397
2047
root 0.194981 17.8264 -2.44755 0.560469 -11.8674 2.243
lowerback 10.2573 -0.754846 0.383513
upperback 4.83404 -0.94666 2.57354
thorax -0.685726 -0.505094 2.5484
lowerneck 3.17938 -3.9551 -6.87134
upperneck -1.28081 -5.56191 -0.361272
head -0.746037 -2.74101 1.11199
rclavicle 3.65764e-014 2.94201e-014
rhumerus -391.734 23.1064 -447.363
rradius 69.5178
rwrist -35.7434
rhand -24.2468 28.3784
rfingers 7.12502
rthumb 2.23897 -1.58958
lclavicle 3.65764e-014 2.94201e-014
lhumerus 15.3055 -12.9078 62.4995
lradius 103.509
lwrist 46.7071
lhand -20.8559 22.1978
lfingers 7.12502
lthumb 5.51346 52.106
rfemur -17.1982 7.3909 14.7223
rtibia 30.6137
rfoot -15.0217 -7.4826
rtoes -11.68
lfemur -11.4781 5.39115 -22.6848
ltibia 30.3695
lfoot -21.4904 13.8582
ltoes -8.22618
2048
root 0.188975 17.8397 -2.44128 0.690105 -11.7063 2.06879
lowerback 10.2153 -0.83673 0.137071
upperback 4.68531 -1.07573 2.43077
thorax -0.810388 -0.569402 2.55343
lowerneck 3.11259 -3.8835 -7.14469
upperneck -1.16112 -5.46486 -0.201858
head -0.689699 -2.69644 1.20369
rclavicle -1.80894e-014 -1.59028e-014
rhumerus -393.772 22.798 -447.63
rradius 71.5581
rwrist -36.0551
rhand -24.1296 28.3807
rfingers 7.12502
rthumb 2.35222 -1.58603
lclavicle -1.80894e-014 -1.59028e-014
lhumerus 15.4785 -12.7679 63.167
lradius 101.818
lwrist 46.8264
lhand -20.6663 22.2888
lfingers 7.12502
lthumb 5.69654 52.1922
rfemur -17.0023 7.43639 14.9216
rtibia 30.1901
rfoot -14.8702 -7.65041
rtoes -11.4298
lfemur -11.4167 5.21301 -22.4739
ltibia 30.0969
lfoot -21.3952 13.7757
ltoes -7.79368
